{
  "accessors": [
    {
      "bufferView": 2,
      "componentType": 5126,
      "count": 12800,
      "max": [
        -0.769011914730072,
        0.4191802144050598,
        0.32341018319129944
      ],
      "min": [
        -2.1864612102508545,
        0.16260917484760284,
        -0.3234102129936218
      ],
      "type": "VEC3"
    },
    {
      "bufferView": 2,
      "byteOffset": 153600,
      "componentType": 5126,
      "count": 12800,
      "max": [
        0.9992979764938354,
        0.9874191880226135,
        0.9894257187843323
      ],
      "min": [
        -0.9845516681671143,
        -0.9941685199737549,
        -0.9894264340400696
      ],
      "type": "VEC3"
    },
    {
      "bufferView": 3,
      "componentType": 5126,
      "count": 12800,
      "max": [
        0.9873839616775513,
        0.9988245964050293,
        1.0,
        1.0
      ],
      "min": [
        -0.981885552406311,
        -0.999923825263977,
        -1.0,
        1.0
      ],
      "type": "VEC4"
    },
    {
      "bufferView": 1,
      "componentType": 5126,
      "count": 12800,
      "max": [
        1.0,
        0.9999999403953552
      ],
      "min": [
        0.0,
        0.0
      ],
      "type": "VEC2"
    },
    {
      "bufferView": 1,
      "byteOffset": 102400,
      "componentType": 5126,
      "count": 12800,
      "max": [
        1.0,
        0.9999999403953552
      ],
      "min": [
        0.0,
        0.0
      ],
      "type": "VEC2"
    },
    {
      "bufferView": 1,
      "byteOffset": 204800,
      "componentType": 5126,
      "count": 12800,
      "max": [
        1.0,
        0.9999999403953552
      ],
      "min": [
        0.0,
        0.0
      ],
      "type": "VEC2"
    },
    {
      "bufferView": 1,
      "byteOffset": 307200,
      "componentType": 5126,
      "count": 12800,
      "max": [
        1.0,
        0.9999999403953552
      ],
      "min": [
        0.0,
        0.0
      ],
      "type": "VEC2"
    },
    {
      "bufferView": 1,
      "byteOffset": 409600,
      "componentType": 5126,
      "count": 12800,
      "max": [
        1.0,
        0.9999999403953552
      ],
      "min": [
        0.0,
        0.0
      ],
      "type": "VEC2"
    },
    {
      "bufferView": 0,
      "componentType": 5125,
      "count": 19200,
      "type": "SCALAR"
    },
    {
      "bufferView": 2,
      "byteOffset": 307200,
      "componentType": 5126,
      "count": 1195,
      "max": [
        -0.7008981108665466,
        0.34887054562568665,
        0.370130717754364
      ],
      "min": [
        -2.2160000801086426,
        -0.13967090845108032,
        -0.370130717754364
      ],
      "type": "VEC3"
    },
    {
      "bufferView": 2,
      "byteOffset": 321540,
      "componentType": 5126,
      "count": 1195,
      "max": [
        1.0,
        1.0,
        1.0
      ],
      "min": [
        -1.0,
        -0.9999997615814209,
        -1.0
      ],
      "type": "VEC3"
    },
    {
      "bufferView": 3,
      "byteOffset": 204800,
      "componentType": 5126,
      "count": 1195,
      "max": [
        0.9999299645423889,
        1.0,
        1.0,
        1.0
      ],
      "min": [
        -0.999971330165863,
        -0.9999997019767761,
        -0.9999998807907104,
        1.0
      ],
      "type": "VEC4"
    },
    {
      "bufferView": 1,
      "byteOffset": 512000,
      "componentType": 5126,
      "count": 1195,
      "max": [
        1.0,
        1.0
      ],
      "min": [
        0.0,
        0.0
      ],
      "type": "VEC2"
    },
    {
      "bufferView": 1,
      "byteOffset": 521560,
      "componentType": 5126,
      "count": 1195,
      "max": [
        1.0,
        1.0
      ],
      "min": [
        0.0,
        0.0
      ],
      "type": "VEC2"
    },
    {
      "bufferView": 1,
      "byteOffset": 531120,
      "componentType": 5126,
      "count": 1195,
      "max": [
        1.0,
        1.0
      ],
      "min": [
        0.0,
        0.0
      ],
      "type": "VEC2"
    },
    {
      "bufferView": 1,
      "byteOffset": 540680,
      "componentType": 5126,
      "count": 1195,
      "max": [
        1.0,
        1.0
      ],
      "min": [
        0.0,
        0.0
      ],
      "type": "VEC2"
    },
    {
      "bufferView": 1,
      "byteOffset": 550240,
      "componentType": 5126,
      "count": 1195,
      "max": [
        1.0,
        1.0
      ],
      "min": [
        0.0,
        0.0
      ],
      "type": "VEC2"
    },
    {
      "bufferView": 0,
      "byteOffset": 76800,
      "componentType": 5125,
      "count": 5136,
      "type": "SCALAR"
    },
    {
      "bufferView": 2,
      "byteOffset": 335880,
      "componentType": 5126,
      "count": 65532,
      "max": [
        6.1620025634765625,
        0.8853756189346313,
        3.5591578483581543
      ],
      "min": [
        -3.5074753761291504,
        -0.703821063041687,
        -3.571146249771118
      ],
      "type": "VEC3"
    },
    {
      "bufferView": 2,
      "byteOffset": 1122264,
      "componentType": 5126,
      "count": 65532,
      "max": [
        1.0,
        1.0,
        0.9999720454216003
      ],
      "min": [
        -1.0,
        -0.9999962449073792,
        -0.9999720454216003
      ],
      "type": "VEC3"
    },
    {
      "bufferView": 3,
      "byteOffset": 223920,
      "componentType": 5126,
      "count": 65532,
      "max": [
        1.0,
        0.9999988079071045,
        0.9979094862937927,
        1.0
      ],
      "min": [
        -1.0,
        -0.9999908208847046,
        -0.9999668598175049,
        1.0
      ],
      "type": "VEC4"
    },
    {
      "bufferView": 1,
      "byteOffset": 559800,
      "componentType": 5126,
      "count": 65532,
      "max": [
        0.9997344017028809,
        0.6931031346321106
      ],
      "min": [
        0.0002655981224961579,
        0.0002655981224961579
      ],
      "type": "VEC2"
    },
    {
      "bufferView": 1,
      "byteOffset": 1084056,
      "componentType": 5126,
      "count": 65532,
      "max": [
        0.9997344017028809,
        0.6931031346321106
      ],
      "min": [
        0.0002655981224961579,
        0.0002655981224961579
      ],
      "type": "VEC2"
    },
    {
      "bufferView": 1,
      "byteOffset": 1608312,
      "componentType": 5126,
      "count": 65532,
      "max": [
        0.9997344017028809,
        0.6931031346321106
      ],
      "min": [
        0.0002655981224961579,
        0.0002655981224961579
      ],
      "type": "VEC2"
    },
    {
      "bufferView": 1,
      "byteOffset": 2132568,
      "componentType": 5126,
      "count": 65532,
      "max": [
        0.9997344017028809,
        0.6931031346321106
      ],
      "min": [
        0.0002655981224961579,
        0.0002655981224961579
      ],
      "type": "VEC2"
    },
    {
      "bufferView": 1,
      "byteOffset": 2656824,
      "componentType": 5126,
      "count": 65532,
      "max": [
        0.9997344017028809,
        0.6931031346321106
      ],
      "min": [
        0.0002655981224961579,
        0.0002655981224961579
      ],
      "type": "VEC2"
    },
    {
      "bufferView": 0,
      "byteOffset": 97344,
      "componentType": 5125,
      "count": 339969,
      "type": "SCALAR"
    },
    {
      "bufferView": 2,
      "byteOffset": 1908648,
      "componentType": 5126,
      "count": 20800,
      "max": [
        6.102294921875,
        0.8823133111000061,
        3.571146249771118
      ],
      "min": [
        -3.5070266723632813,
        -0.6244124174118042,
        -3.5709424018859863
      ],
      "type": "VEC3"
    },
    {
      "bufferView": 2,
      "byteOffset": 2158248,
      "componentType": 5126,
      "count": 20800,
      "max": [
        1.0,
        1.0,
        0.9998076558113098
      ],
      "min": [
        -1.0,
        -0.9999243021011353,
        -0.999534547328949
      ],
      "type": "VEC3"
    },
    {
      "bufferView": 3,
      "byteOffset": 1272432,
      "componentType": 5126,
      "count": 20800,
      "max": [
        1.0,
        0.9999789595603943,
        1.0,
        1.0
      ],
      "min": [
        -1.0,
        -0.9998719692230225,
        -0.9999999403953552,
        1.0
      ],
      "type": "VEC4"
    },
    {
      "bufferView": 1,
      "byteOffset": 3181080,
      "componentType": 5126,
      "count": 20800,
      "max": [
        0.9995133876800537,
        0.7280440330505371
      ],
      "min": [
        0.08765678107738495,
        0.027761662378907204
      ],
      "type": "VEC2"
    },
    {
      "bufferView": 1,
      "byteOffset": 3347480,
      "componentType": 5126,
      "count": 20800,
      "max": [
        0.9995133876800537,
        0.7280440330505371
      ],
      "min": [
        0.08765678107738495,
        0.027761662378907204
      ],
      "type": "VEC2"
    },
    {
      "bufferView": 1,
      "byteOffset": 3513880,
      "componentType": 5126,
      "count": 20800,
      "max": [
        0.9995133876800537,
        0.7280440330505371
      ],
      "min": [
        0.08765678107738495,
        0.027761662378907204
      ],
      "type": "VEC2"
    },
    {
      "bufferView": 1,
      "byteOffset": 3680280,
      "componentType": 5126,
      "count": 20800,
      "max": [
        0.9995133876800537,
        0.7280440330505371
      ],
      "min": [
        0.08765678107738495,
        0.027761662378907204
      ],
      "type": "VEC2"
    },
    {
      "bufferView": 1,
      "byteOffset": 3846680,
      "componentType": 5126,
      "count": 20800,
      "max": [
        0.9995133876800537,
        0.7280440330505371
      ],
      "min": [
        0.08765678107738495,
        0.027761662378907204
      ],
      "type": "VEC2"
    },
    {
      "bufferView": 0,
      "byteOffset": 1457220,
      "componentType": 5125,
      "count": 78975,
      "type": "SCALAR"
    }
  ],
  "asset": {
    "extras": {
      "author": "markkingsnorth (https://sketchfab.com/markkingsnorth)",
      "license": "CC-BY-4.0 (http://creativecommons.org/licenses/by/4.0/)",
      "source": "https://sketchfab.com/3d-models/speedbirds-jet-d62581e0c2a249afb97e9be5f4234d59",
      "title": "Speedbirds Jet"
    },
    "generator": "Sketchfab-13.78.0",
    "version": "2.0"
  },
  "bufferViews": [
    {
      "buffer": 0,
      "byteLength": 1773120,
      "name": "floatBufferViews",
      "target": 34963
    },
    {
      "buffer": 0,
      "byteLength": 4013080,
      "byteOffset": 1773120,
      "byteStride": 8,
      "name": "floatBufferViews",
      "target": 34962
    },
    {
      "buffer": 0,
      "byteLength": 2407848,
      "byteOffset": 5786200,
      "byteStride": 12,
      "name": "floatBufferViews",
      "target": 34962
    },
    {
      "buffer": 0,
      "byteLength": 1605232,
      "byteOffset": 8194048,
      "byteStride": 16,
      "name": "floatBufferViews",
      "target": 34962
    }
  ],
  "buffers": [
    {
      "byteLength": 9799280,
      "uri": "scene.bin"
    }
  ],
  "images": [
    {
      "uri": "textures/Canopy_baseColor.png"
    },
    {
      "uri": "textures/Canopy_metallicRoughness.png"
    },
    {
      "uri": "textures/Canopy_emissive.png"
    },
    {
      "uri": "textures/Canopy_normal.png"
    },
    {
      "uri": "textures/Cockpit_baseColor.png"
    },
    {
      "uri": "textures/Cockpit_metallicRoughness.png"
    },
    {
      "uri": "textures/Cockpit_emissive.png"
    },
    {
      "uri": "textures/Cockpit_normal.png"
    },
    {
      "uri": "textures/material_baseColor.png"
    },
    {
      "uri": "textures/material_metallicRoughness.png"
    },
    {
      "uri": "textures/material_emissive.png"
    },
    {
      "uri": "textures/material_normal.png"
    }
  ],
  "materials": [
    {
      "alphaMode": "BLEND",
      "doubleSided": true,
      "emissiveFactor": [
        1.0,
        1.0,
        1.0
      ],
      "emissiveTexture": {
        "index": 2
      },
      "name": "Canopy",
      "normalTexture": {
        "index": 3
      },
      "pbrMetallicRoughness": {
        "baseColorTexture": {
          "index": 0
        },
        "metallicRoughnessTexture": {
          "index": 1
        }
      }
    },
    {
      "doubleSided": true,
      "emissiveFactor": [
        1.0,
        1.0,
        1.0
      ],
      "emissiveTexture": {
        "index": 6
      },
      "name": "Cockpit",
      "normalTexture": {
        "index": 7
      },
      "pbrMetallicRoughness": {
        "baseColorTexture": {
          "index": 4
        },
        "metallicRoughnessTexture": {
          "index": 5
        }
      }
    },
    {
      "doubleSided": true,
      "emissiveFactor": [
        1.0,
        1.0,
        1.0
      ],
      "emissiveTexture": {
        "index": 10,
        "texCoord": 2
      },
      "name": "material",
      "normalTexture": {
        "index": 11,
        "texCoord": 3
      },
      "pbrMetallicRoughness": {
        "baseColorTexture": {
          "index": 8
        },
        "metallicRoughnessTexture": {
          "index": 9,
          "texCoord": 1
        }
      }
    }
  ],
  "meshes": [
    {
      "name": "Object_0",
      "primitives": [
        {
          "attributes": {
            "NORMAL": 1,
            "POSITION": 0,
            "TANGENT": 2,
            "TEXCOORD_0": 3,
            "TEXCOORD_1": 4,
            "TEXCOORD_2": 5,
            "TEXCOORD_3": 6,
            "TEXCOORD_4": 7
          },
          "indices": 8,
          "material": 0,
          "mode": 4
        }
      ]
    },
    {
      "name": "Object_1",
      "primitives": [
        {
          "attributes": {
            "NORMAL": 10,
            "POSITION": 9,
            "TANGENT": 11,
            "TEXCOORD_0": 12,
            "TEXCOORD_1": 13,
            "TEXCOORD_2": 14,
            "TEXCOORD_3": 15,
            "TEXCOORD_4": 16
          },
          "indices": 17,
          "material": 1,
          "mode": 4
        }
      ]
    },
    {
      "name": "Object_2",
      "primitives": [
        {
          "attributes": {
            "NORMAL": 19,
            "POSITION": 18,
            "TANGENT": 20,
            "TEXCOORD_0": 21,
            "TEXCOORD_1": 22,
            "TEXCOORD_2": 23,
            "TEXCOORD_3": 24,
            "TEXCOORD_4": 25
          },
          "indices": 26,
          "material": 2,
          "mode": 4
        }
      ]
    },
    {
      "name": "Object_3",
      "primitives": [
        {
          "attributes": {
            "NORMAL": 28,
            "POSITION": 27,
            "TANGENT": 29,
            "TEXCOORD_0": 30,
            "TEXCOORD_1": 31,
            "TEXCOORD_2": 32,
            "TEXCOORD_3": 33,
            "TEXCOORD_4": 34
          },
          "indices": 35,
          "material": 2,
          "mode": 4
        }
      ]
    }
  ],
  "nodes": [
    {
      "children": [
        1
      ],
      "matrix": [
        1.0,
        0.0,
        0.0,
        0.0,
        0.0,
        2.220446049250313e-16,
        -1.0,
        0.0,
        0.0,
        1.0,
        2.220446049250313e-16,
        0.0,
        0.0,
        0.0,
        0.0,
        1.0
      ],
      "name": "Sketchfab_model"
    },
    {
      "children": [
        2
      ],
      "name": "root"
    },
    {
      "children": [
        3,
        5,
        7
      ],
      "matrix": [
        1.0,
        0.0,
        0.0,
        0.0,
        0.0,
        2.220446049250313e-16,
        1.0,
        0.0,
        0.0,
        -1.0,
        2.220446049250313e-16,
        0.0,
        0.0,
        0.0,
        0.0,
        1.0
      ],
      "name": "GLTF_SceneRootNode"
    },
    {
      "children": [
        4
      ],
      "name": "Canopy_0"
    },
    {
      "mesh": 0,
      "name": "Object_4"
    },
    {
      "children": [
        6
      ],
      "name": "Cockpit_1"
    },
    {
      "mesh": 1,
      "name": "Object_6"
    },
    {
      "children": [
        8,
        9
      ],
      "name": "Jet_2"
    },
    {
      "mesh": 2,
      "name": "Object_8"
    },
    {
      "mesh": 3,
      "name": "Object_9"
    }
  ],
  "samplers": [
    {
      "magFilter": 9729,
      "minFilter": 9987,
      "wrapS": 10497,
      "wrapT": 10497
    }
  ],
  "scene": 0,
  "scenes": [
    {
      "name": "Sketchfab_Scene",
      "nodes": [
        0
      ]
    }
  ],
  "textures": [
    {
      "sampler": 0,
      "source": 0
    },
    {
      "sampler": 0,
      "source": 1
    },
    {
      "sampler": 0,
      "source": 2
    },
    {
      "sampler": 0,
      "source": 3
    },
    {
      "sampler": 0,
      "source": 4
    },
    {
      "sampler": 0,
      "source": 5
    },
    {
      "sampler": 0,
      "source": 6
    },
    {
      "sampler": 0,
      "source": 7
    },
    {
      "sampler": 0,
      "source": 8
    },
    {
      "sampler": 0,
      "source": 9
    },
    {
      "sampler": 0,
      "source": 10
    },
    {
      "sampler": 0,
      "source": 11
    }
  ]
}
